<svg xmlns="http://www.w3.org/2000/svg" fill="none" viewBox="0 0 26 30">
  <rect width="26" height="30" fill="#F9F9F9" rx="4"/>
  <path fill="#000" fill-rule="evenodd" d="M15.5 12c0 1.3807-1.1193 2.5-2.5 2.5s-2.5-1.1193-2.5-2.5 1.1193-2.5 2.5-2.5 2.5 1.1193 2.5 2.5Zm1.5 0c0 2.2091-1.7909 4-4 4-2.2091 0-4-1.7909-4-4 0-2.20914 1.7909-4 4-4 2.2091 0 4 1.79086 4 4Zm-6 5.25c-2.07107 0-3.75 1.6789-3.75 3.75v1h1.5v-1c0-1.2426 1.00736-2.25 2.25-2.25h4c1.2426 0 2.25 1.0074 2.25 2.25v1h1.5v-1c0-2.0711-1.6789-3.75-3.75-3.75h-4Z" clip-rule="evenodd"/>
</svg>
