<svg width="22" height="22" fill="none" xmlns="http://www.w3.org/2000/svg">
  <path fill-rule="evenodd" clip-rule="evenodd" d="M12.7927 12.2638c-1.4319 1.4319-3.75355 1.4319-5.18547 0-1.43193-1.4319-1.43193-3.75353 0-5.18545 1.43192-1.43192 3.75357-1.43192 5.18547 0 1.4319 1.43192 1.4319 3.75355 0 5.18545Zm.4404 1.383c-1.9603 1.4994-4.77586 1.3526-6.56868-.4402-1.95262-1.9526-1.95262-5.11844 0-7.07106 1.95262-1.95262 5.11848-1.95262 7.07108 0 1.7927 1.79275 1.9395 4.60816.4403 6.56836l3.5667 3.5667-.9428.9428-3.5666-3.5666Z" fill="#fff"/>
</svg>
